<svg xmlns="http://www.w3.org/2000/svg" width="264" height="264" viewBox="0 0 264 264">
  <path id="iconmonstr-github-2"
        d="M0,0V264H264V0ZM159.874,215.49c-4.466.858-5.874-1.881-5.874-4.224V187.121c0-8.217-2.882-13.563-6.05-16.291,19.6-2.178,40.194-9.625,40.194-43.417A33.948,33.948,0,0,0,179.08,103.8c.913-2.222,3.927-11.176-.869-23.287,0,0-7.381-2.365-24.178,9.02a83.211,83.211,0,0,0-44.066-.022c-16.808-11.385-24.2-9.02-24.2-9.02-4.774,12.122-1.76,21.065-.847,23.3A34.017,34.017,0,0,0,75.856,127.4c0,33.7,20.537,41.261,40.1,43.494-2.519,2.2-4.8,6.072-5.588,11.77-5.027,2.244-17.754,6.127-25.608-7.326,0,0-4.653-8.448-13.5-9.075,0,0-8.58-.11-.605,5.357,0,0,5.775,2.706,9.779,12.87,0,0,5.093,15.708,29.568,10.384v16.379c0,2.321-1.419,5.049-5.808,4.235a87.967,87.967,0,1,1,55.682,0Z"
        fill="#fff"/>
</svg>
