<svg xmlns="http://www.w3.org/2000/svg" width="264" height="264" viewBox="0 0 264 264">
  <path id="instagram"
        d="M161.337,132A29.337,29.337,0,1,1,132,102.663,29.336,29.336,0,0,1,161.337,132Zm42.306-35.552c.418,9.273.506,12.056.506,35.552s-.088,26.279-.506,35.563c-1.1,23.65-12.2,34.991-36.069,36.069-9.284.418-12.067.517-35.574.517s-26.29-.088-35.552-.506c-23.914-1.089-34.991-12.452-36.069-36.069-.429-9.295-.528-12.078-.528-35.574s.1-26.279.517-35.552c1.089-23.672,12.2-34.991,36.069-36.069,9.284-.429,12.067-.517,35.563-.517s26.29.088,35.563.506c23.848,1.089,34.98,12.408,36.08,36.08ZM177.188,132A45.188,45.188,0,1,0,132,177.188,45.192,45.192,0,0,0,177.188,132ZM189.53,85.03a10.56,10.56,0,1,0-10.56,10.56A10.563,10.563,0,0,0,189.53,85.03ZM264,0V264H0V0ZM220,132c0-23.892-.1-26.895-.528-36.278C218.031,63.8,200.277,46,168.289,44.539,158.895,44.1,155.9,44,132,44s-26.884.1-36.278.528C63.756,45.991,46,63.723,44.528,95.711,44.1,105.105,44,108.108,44,132s.1,26.895.528,36.278C46,200.244,63.734,218.009,95.722,219.472,105.116,219.9,108.1,220,132,220s26.895-.1,36.289-.528c31.922-1.463,49.742-19.2,51.183-51.194C219.9,158.895,220,155.9,220,132Z"
        fill="#fff"/>
</svg>
