<svg xmlns="http://www.w3.org/2000/svg" width="338.75" height="123.789" viewBox="0 0 338.75 123.789">
  <g id="ЛОГО" transform="translate(-505.705 -1090.781)">
    <g id="ИФ" transform="translate(604.248 1090.781)">
      <path id="Path_17"
            d="M40.707-184.658q-11.006,0-17.91-7.229t-6.9-19.335v-1.7a32.482,32.482,0,0,1,3.077-14.383,24,24,0,0,1,8.6-9.905,21.634,21.634,0,0,1,11.981-3.577q10.556,0,16.409,6.954t5.853,19.911v3.852H25.149q.2,8,4.678,12.932a14.7,14.7,0,0,0,11.381,4.928,16.119,16.119,0,0,0,8.3-2,20.866,20.866,0,0,0,5.953-5.3l5.653,4.4Q54.314-184.658,40.707-184.658Zm-1.151-48.526a12.345,12.345,0,0,0-9.405,4.077q-3.8,4.077-4.7,11.431H52.563v-.7q-.4-7.054-3.8-10.931A11.623,11.623,0,0,0,39.556-233.184Zm58.107,1.7a27.734,27.734,0,0,0-4.552-.35q-9.1,0-12.357,7.754v39.451H71.481l.018-55.16h9l.15,6.253a14.411,14.411,0,0,1,12.907-7.254,9.455,9.455,0,0,1,4.1.7Zm28.992,46.825q-11.006,0-17.91-7.229t-6.9-19.335v-1.7a32.482,32.482,0,0,1,3.077-14.383,24,24,0,0,1,8.6-9.905,21.634,21.634,0,0,1,11.981-3.577q10.556,0,16.409,6.954t5.853,19.911v3.852H111.1q.2,8,4.678,12.932a14.7,14.7,0,0,0,11.381,4.928,16.119,16.119,0,0,0,8.3-2,20.866,20.866,0,0,0,5.953-5.3l5.653,4.4Q140.262-184.658,126.655-184.658ZM125.5-233.184a12.345,12.345,0,0,0-9.405,4.077q-3.8,4.077-4.7,11.431h27.115v-.7q-.4-7.054-3.8-10.931A11.623,11.623,0,0,0,125.5-233.184Zm31.536,20.011q0-12.457,5.9-20.036a18.668,18.668,0,0,1,15.458-7.579q9.505,0,15.058,6.5V-262.5h9.255l-.009,77.872H194.25l-.489-6.834q-5.553,6.8-15.458,6.8a18.488,18.488,0,0,1-15.333-7.7q-5.928-7.7-5.928-20.111Zm9.255,1.051q0,9.2,3.8,14.408a12.291,12.291,0,0,0,10.506,5.2q8.8,0,12.857-7.9V-225.28a13.6,13.6,0,0,0-12.757-7.654,12.349,12.349,0,0,0-10.606,5.253Q166.3-222.429,166.3-212.123Zm81.328,27.495c-.534-1.067-1.007-4.121-1.34-6.856a20.65,20.65,0,0,1-15.408,6.7q-8,0-13.132-4.527a14.648,14.648,0,0,1-5.128-11.481q0-8.455,6.428-13.132c4.286-3.118,9.348-4.678,17.119-4.678h9.97v-4.252a10.394,10.394,0,0,0-2.9-7.729q-2.9-2.877-8.555-2.877a13.5,13.5,0,0,0-8.3,2.5,7.371,7.371,0,0,0-3.352,6.053h-9.3a12.773,12.773,0,0,1,2.877-7.829,19.633,19.633,0,0,1,7.8-5.978,26.255,26.255,0,0,1,10.831-2.2q9.355,0,14.658,4.678t5.5,12.882v24.913c0,4.969-.014,13.809-.014,13.809Zm-15.4-8.206a16.266,16.266,0,0,0,8.254-2.251,13.617,13.617,0,0,0,5.653-5.853v-11.106h-7.254q-17.009,0-17.009,9.955a8.425,8.425,0,0,0,2.9,6.8A11.152,11.152,0,0,0,232.226-192.834Z"
            transform="translate(-15.308 308.409)" fill="#ff8300"/>
      <path id="Union_1"
            d="M148.932,48.9q-6.9-7.229-6.9-19.335v-1.7A32.483,32.483,0,0,1,145.1,13.482a24,24,0,0,1,8.6-9.905A21.634,21.634,0,0,1,165.691,0Q176.247,0,182.1,6.954t5.853,19.911v3.852h-36.67q.2,8,4.678,12.932a14.7,14.7,0,0,0,11.381,4.928,16.118,16.118,0,0,0,8.3-2,20.861,20.861,0,0,0,5.953-5.3l5.636,4.389.171.124v.165l-.325-.016q-6.8,10.2-20.24,10.2Q155.836,56.13,148.932,48.9Zm7.354-37.22q-3.8,4.077-4.7,11.431H178.7v-.7q-.4-7.054-3.8-10.931a11.623,11.623,0,0,0-9.2-3.877A12.345,12.345,0,0,0,156.286,11.681ZM6.9,48.9Q0,41.673,0,29.566v-1.7A32.483,32.483,0,0,1,3.077,13.482a24,24,0,0,1,8.6-9.905A21.634,21.634,0,0,1,23.663,0Q34.218,0,40.072,6.954t5.853,19.911v3.852H9.255q.2,8,4.678,12.932a14.7,14.7,0,0,0,11.381,4.928,16.118,16.118,0,0,0,8.3-2,20.864,20.864,0,0,0,5.953-5.3l5.653,4.4Q38.421,56.13,24.813,56.13,13.807,56.13,6.9,48.9Zm7.354-37.22q-3.8,4.077-4.7,11.431H36.67v-.7q-.4-7.054-3.8-10.931a11.623,11.623,0,0,0-9.2-3.877A12.345,12.345,0,0,0,14.258,11.681ZM230.952,55.13V19.311q-.05-5.853-2.676-8.655t-8.179-2.8a13.358,13.358,0,0,0-7.9,2.4,16.307,16.307,0,0,0-5.3,6.3V55.13h-9.255V1h8.755l.3,6.8A19.725,19.725,0,0,1,222.9,0q17.159,0,17.309,19.361V55.13Zm-108.76,0V19.41q0-5.8-2.651-8.68t-8.9-2.876a12.271,12.271,0,0,0-8.554,3.077,12.48,12.48,0,0,0-3.952,8.279V55.13H88.824V19.661q0-11.807-11.556-11.806-9.1,0-12.456,7.754V55.13H55.556V1h8.755l.25,6q5.953-7,16.059-7Q91.975,0,96.078,8.7a20.5,20.5,0,0,1,7.029-6.3A20.758,20.758,0,0,1,113.337,0q17.81,0,18.11,18.86V55.13Z"
            transform="translate(0 0)" fill="#9100fe"/>
    </g>
    <g id="Большая_S" transform="translate(505.705 1090.807)">
      <path id="Path_23"
            d="M78.808-657.248Q59.856-662.7,51.224-670.638a25.582,25.582,0,0,1-8.632-19.6q0-13.2,10.55-21.829T80.573-720.7a45.768,45.768,0,0,1,20.525,4.45,33.749,33.749,0,0,1,13.965,12.277,31.392,31.392,0,0,1,4.949,17.111H105.2q0-10.164-6.445-15.978t-18.185-5.813q-10.9,0-17,4.8t-6.1,13.336a14.419,14.419,0,0,0,5.793,11.569q5.793,4.727,19.719,8.648t21.791,8.639a33.067,33.067,0,0,1,11.663,11.011,28.1,28.1,0,0,1,3.8,14.809,26.1,26.1,0,0,1-10.589,21.753q-10.589,8.172-28.313,8.172a52.511,52.511,0,0,1-21.484-4.412,36.155,36.155,0,0,1-15.384-12.085,29.492,29.492,0,0,1-5.409-17.417H53.871q0,10.128,7.481,16t19.988,5.87q11.663,0,17.878-4.757a15.452,15.452,0,0,0,6.215-12.967q0-8.21-5.755-12.7T78.808-657.248Z"
            transform="translate(-28.208 729.68)" fill="#ff8300"/>
      <path id="Path_18" d="M1841.988,2194.351a22.84,22.84,0,0,1,2.98,11.83h8.263A19.3,19.3,0,0,0,1841.988,2194.351Z"
            transform="translate(-1778.187 -2170.177)" fill="#9100fe"/>
      <path id="Path_19"
            d="M1475.193,2108.182c-19.816-12.036-13.055-30.136-12.375-32.487,6.855-19.189,29.27-21.268,33.99-21.276,23.083-.689,31.525,9.6,33.321,11.807-15.862-7.776-33.544-3.094-37.02-1.718C1469.427,2073.871,1467.07,2095.78,1475.193,2108.182Z"
            transform="translate(-1458.223 -2054.386)" fill="#9100fe"/>
      <path id="Path_20"
            d="M1629.713,2342s2.016,5.349,14.188,10.057c3.738,1.29,6.819,2.348,11.968,3.771a91.537,91.537,0,0,1,19.108,7.83c-9.286-12.824-33.378-18.509-45.264-21.658"
            transform="translate(-1597.504 -2296.9)" fill="#9100fe"/>
      <path id="Path_21"
            d="M1455.05,2595.69c-9.839-5.1-12.476-14.41-13.142-15.942a30.023,30.023,0,0,1-1.917-10.86s14.818,0,14.825,0c.265-.13-.395,3.6,1.364,7.865,0,.009-6.728,0-6.729,0S1448.4,2585.444,1455.05,2595.69Z"
            transform="translate(-1439.99 -2487.847)" fill="#9100fe"/>
      <path id="Path_22"
            d="M1634,2584.436c8.049,10.063,30.283,10.25,37.316,5.279,9.9-6.058,8.443-15.824,7.605-18.286-1.786-6.031-7.852-8.431-8.792-9.311,1.11,2.355,1.819,10.052-3.8,16-6.072,6.453-14.182,7.287-21.557,7.58A41.625,41.625,0,0,1,1634,2584.436Z"
            transform="translate(-1603.67 -2482.792)" fill="#9100fe"/>
    </g>
  </g>
</svg>
