<svg xmlns="http://www.w3.org/2000/svg" width="253.533" height="92.648" viewBox="0 0 253.533 92.648">
  <g id="ЛОГО" transform="translate(-505.705 -1090.781)">
    <g id="ИФ" transform="translate(579.458 1090.781)">
      <path id="Path_17" data-name="Path 17"
            d="M34.465-204.24a17.7,17.7,0,0,1-13.4-5.41q-5.167-5.41-5.167-14.471V-225.4a24.31,24.31,0,0,1,2.3-10.765,17.963,17.963,0,0,1,6.44-7.413A16.191,16.191,0,0,1,33.6-246.25q7.9,0,12.281,5.2t4.381,14.9v2.883H22.82a14.4,14.4,0,0,0,3.5,9.679,11,11,0,0,0,8.518,3.688,12.064,12.064,0,0,0,6.215-1.5,15.617,15.617,0,0,0,4.456-3.969l4.231,3.295Q44.649-204.24,34.465-204.24ZM33.6-240.559a9.239,9.239,0,0,0-7.039,3.051,14.832,14.832,0,0,0-3.52,8.555H43.339v-.524q-.3-5.279-2.846-8.181A8.7,8.7,0,0,0,33.6-240.559Zm43.49,1.273a20.757,20.757,0,0,0-3.407-.262q-6.814,0-9.248,5.8v29.527H57.5l.013-41.283h6.74l.112,4.68a10.786,10.786,0,0,1,9.66-5.429,7.076,7.076,0,0,1,3.07.524Zm21.7,35.046a17.7,17.7,0,0,1-13.4-5.41q-5.167-5.41-5.167-14.471V-225.4a24.31,24.31,0,0,1,2.3-10.765,17.963,17.963,0,0,1,6.44-7.413,16.192,16.192,0,0,1,8.967-2.677q7.9,0,12.281,5.2t4.381,14.9v2.883H87.147a14.4,14.4,0,0,0,3.5,9.679,11,11,0,0,0,8.518,3.688,12.064,12.064,0,0,0,6.215-1.5,15.617,15.617,0,0,0,4.456-3.969l4.231,3.295Q108.976-204.24,98.792-204.24Zm-.861-36.319a9.239,9.239,0,0,0-7.039,3.051,14.832,14.832,0,0,0-3.52,8.555h20.294v-.524q-.3-5.279-2.846-8.181A8.7,8.7,0,0,0,97.93-240.559Zm23.6,14.977q0-9.323,4.418-15a13.972,13.972,0,0,1,11.57-5.672,14.05,14.05,0,0,1,11.27,4.867V-262.5h6.927l-.006,58.282h-6.329l-.366-5.115q-4.156,5.092-11.57,5.092a13.837,13.837,0,0,1-11.476-5.766q-4.437-5.766-4.437-15.052Zm6.927.786q0,6.889,2.846,10.783a9.2,9.2,0,0,0,7.863,3.894,10.105,10.105,0,0,0,9.623-5.916v-18.609a10.182,10.182,0,0,0-9.548-5.729,9.243,9.243,0,0,0-7.938,3.931Q128.46-232.509,128.46-224.8Zm60.869,20.578a22.959,22.959,0,0,1-1-5.131,15.455,15.455,0,0,1-11.532,5.017,14.3,14.3,0,0,1-9.829-3.388,10.963,10.963,0,0,1-3.838-8.593,11.453,11.453,0,0,1,4.811-9.829c3.208-2.334,7-3.5,12.813-3.5h7.462v-3.183a7.78,7.78,0,0,0-2.172-5.785q-2.172-2.153-6.4-2.153a10.1,10.1,0,0,0-6.215,1.872,5.516,5.516,0,0,0-2.509,4.53h-6.964a9.559,9.559,0,0,1,2.153-5.86,14.694,14.694,0,0,1,5.841-4.474,19.65,19.65,0,0,1,8.106-1.647q7,0,10.97,3.5a12.628,12.628,0,0,1,4.119,9.641v18.646c0,3.719-.011,10.335-.011,10.335ZM177.8-210.36a12.174,12.174,0,0,0,6.178-1.685,10.191,10.191,0,0,0,4.231-4.381v-8.312h-5.429q-12.73,0-12.73,7.451a6.306,6.306,0,0,0,2.172,5.092A8.347,8.347,0,0,0,177.8-210.36Z"
            transform="translate(-15.455 296.86)" fill="#ff8300"/>
      <path id="Union_1" data-name="Union 1"
            d="M111.466,36.6q-5.167-5.41-5.167-14.471V20.855a24.311,24.311,0,0,1,2.3-10.764,17.962,17.962,0,0,1,6.44-7.414A16.192,16.192,0,0,1,124.009,0q7.9,0,12.281,5.2t4.381,14.9v2.883H113.226a14.4,14.4,0,0,0,3.5,9.679,11,11,0,0,0,8.518,3.688,12.063,12.063,0,0,0,6.215-1.5,15.613,15.613,0,0,0,4.456-3.969l4.218,3.285.128.093v.123l-.243-.012q-5.091,7.631-15.148,7.631A17.7,17.7,0,0,1,111.466,36.6Zm5.5-27.857a14.831,14.831,0,0,0-3.519,8.555h20.293v-.524q-.3-5.279-2.845-8.181a8.7,8.7,0,0,0-6.889-2.9A9.24,9.24,0,0,0,116.97,8.743ZM5.167,36.6Q0,31.189,0,22.128V20.855A24.311,24.311,0,0,1,2.3,10.091a17.961,17.961,0,0,1,6.44-7.414A16.191,16.191,0,0,1,17.71,0q7.9,0,12.281,5.2t4.381,14.9v2.883H6.927a14.4,14.4,0,0,0,3.5,9.679,11,11,0,0,0,8.518,3.688,12.063,12.063,0,0,0,6.215-1.5,15.616,15.616,0,0,0,4.456-3.969l4.231,3.295Q28.756,42.01,18.571,42.01A17.7,17.7,0,0,1,5.167,36.6Zm5.5-27.857A14.832,14.832,0,0,0,7.151,17.3H27.445v-.524q-.3-5.279-2.846-8.181a8.7,8.7,0,0,0-6.889-2.9A9.239,9.239,0,0,0,10.671,8.743ZM172.853,41.261V14.453q-.037-4.381-2-6.478t-6.122-2.1a10,10,0,0,0-5.916,1.8,12.2,12.2,0,0,0-3.969,4.718V41.261h-6.927V.749h6.552l.225,5.092A14.763,14.763,0,0,1,166.825,0q12.842,0,12.955,14.49V41.261Zm-81.4,0V14.527q0-4.343-1.984-6.5T82.8,5.879a9.184,9.184,0,0,0-6.4,2.3,9.341,9.341,0,0,0-2.958,6.2V41.261H66.479V14.715q0-8.836-8.649-8.836-6.814,0-9.323,5.8V41.261H41.58V.749h6.552l.187,4.493A14.962,14.962,0,0,1,60.338,0q8.5,0,11.57,6.515A15.345,15.345,0,0,1,77.169,1.8,15.536,15.536,0,0,1,84.825,0Q98.155,0,98.379,14.116V41.261Z"
            transform="translate(0 0)" fill="#9100fe"/>
    </g>
    <g id="Большая_S" data-name="Большая S" transform="translate(505.705 1090.8)">
      <path id="Path_23" data-name="Path 23"
            d="M68.81-673.211q-14.184-4.077-20.645-10.021A19.146,19.146,0,0,1,41.7-697.9a20.225,20.225,0,0,1,7.9-16.338q7.9-6.461,20.53-6.461a34.254,34.254,0,0,1,15.362,3.331,25.259,25.259,0,0,1,10.452,9.188,23.5,23.5,0,0,1,3.7,12.806H88.564q0-7.607-4.824-11.958t-13.61-4.351q-8.155,0-12.72,3.6a11.994,11.994,0,0,0-4.565,9.981,10.792,10.792,0,0,0,4.336,8.659q4.336,3.538,14.759,6.472t16.309,6.466a24.748,24.748,0,0,1,8.729,8.241,21.033,21.033,0,0,1,2.843,11.083,19.536,19.536,0,0,1-7.925,16.28q-7.925,6.116-21.19,6.116a39.3,39.3,0,0,1-16.079-3.3,27.06,27.06,0,0,1-11.514-9.045,22.073,22.073,0,0,1-4.049-13.036H50.146a14.4,14.4,0,0,0,5.6,11.974q5.6,4.393,14.96,4.393,8.729,0,13.38-3.56a11.565,11.565,0,0,0,4.652-9.705q0-6.145-4.307-9.5T68.81-673.211Z"
            transform="translate(-30.939 727.422)" fill="#ff8300"/>
      <path id="Path_18" data-name="Path 18"
            d="M1841.988,2194.351a17.1,17.1,0,0,1,2.23,8.854h6.184A14.446,14.446,0,0,0,1841.988,2194.351Z"
            transform="translate(-1794.237 -2176.259)" fill="#9100fe"/>
      <path id="Path_19" data-name="Path 19"
            d="M1471.664,2094.649c-14.831-9.008-9.771-22.555-9.262-24.315,5.131-14.362,21.907-15.918,25.439-15.924,17.276-.516,23.594,7.186,24.939,8.837-11.872-5.82-25.105-2.315-27.707-1.286C1467.348,2068.969,1465.584,2085.367,1471.664,2094.649Z"
            transform="translate(-1458.962 -2054.386)" fill="#9100fe"/>
      <path id="Path_20" data-name="Path 20"
            d="M1629.713,2342s1.509,4,10.619,7.527c2.8.965,5.1,1.757,8.957,2.823a68.51,68.51,0,0,1,14.3,5.86c-6.95-9.6-24.981-13.853-33.877-16.21"
            transform="translate(-1605.607 -2308.246)" fill="#9100fe"/>
      <path id="Path_21" data-name="Path 21"
            d="M1451.261,2588.947c-7.364-3.819-9.338-10.785-9.836-11.932a22.477,22.477,0,0,1-1.434-8.128s11.091,0,11.1,0c.2-.1-.3,2.7,1.021,5.887,0,.007-5.035,0-5.036,0S1446.286,2581.279,1451.261,2588.947Z"
            transform="translate(-1439.99 -2508.233)" fill="#9100fe"/>
      <path id="Path_22" data-name="Path 22"
            d="M1634,2578.822c6.024,7.531,22.665,7.672,27.929,3.951a11.938,11.938,0,0,0,5.692-13.686c-1.337-4.514-5.877-6.31-6.58-6.969.831,1.762,1.361,7.523-2.847,11.972-4.544,4.829-10.614,5.454-16.134,5.673A31.154,31.154,0,0,1,1634,2578.822Z"
            transform="translate(-1611.3 -2502.748)" fill="#9100fe"/>
    </g>
  </g>
</svg>
