<svg xmlns="http://www.w3.org/2000/svg" width="264" height="264" viewBox="0 0 264 264">
  <path id="telegram"
        d="M264,264H0V0H264Zm-85.184-56.628a8.67,8.67,0,0,0,8.118,1.067,8.5,8.5,0,0,0,5.313-6.16c6.369-29.942,21.835-105.754,27.632-132.99a5.777,5.777,0,0,0-1.9-5.566,5.913,5.913,0,0,0-5.852-1.023C181.379,74.074,86.68,109.6,47.971,123.937a6.032,6.032,0,0,0,.374,11.462C65.7,140.58,88.5,147.807,88.5,147.807s10.637,32.164,16.192,48.51a6.41,6.41,0,0,0,4.422,4.224,6.339,6.339,0,0,0,5.951-1.518c8.921-8.415,22.7-21.428,22.7-21.428s26.191,19.206,41.052,29.777Zm-80.74-63.624,12.309,40.612,2.739-25.718s47.564-42.9,74.69-67.364a2.03,2.03,0,0,0,.242-2.761,2.087,2.087,0,0,0-2.761-.473c-31.427,20.075-87.219,55.7-87.219,55.7Z"
        fill="#fff" fill-rule="evenodd"/>
</svg>
